#!OML:ASF I:\Actors\actors\Patient Classification 2\Patient 1\Session 1\actor1.ASF
:FULLY-SPECIFIED
:DEGREES
290
root -0.935152 18.6223 5.84182 -4.51139 -5.57355 -5.75078
lowerback 16.2007 -0.381235 -0.308576
upperback 5.26239 -0.508993 1.25476
thorax -3.46602 -0.267635 1.59073
lowerneck 1.51199 -7.66629 -8.45854
upperneck 42.7612 -10.7518 -0.104825
head 15.3848 -6.07589 0.15052
rclavicle 7.15625e-015 -1.19271e-015
rhumerus 8.93908 -39.4488 -11.6445
rradius 121.529
rwrist -50.1727
rhand -2.65604 -17.3201
rfingers 7.12502
rthumb 23.044 -45.9624
lclavicle 7.15625e-015 -1.19271e-015
lhumerus 19.2096 35.1168 25.5595
lradius 126.98
lwrist 77.4151
lhand -17.6815 -35.6503
lfingers 7.12502
lthumb 8.57771 -5.84454
rfemur 13.6401 -4.07609 19.2701
rtibia 3.33958e-014
rfoot -13.3945 -5.24934
rtoes -15.1438
lfemur 0.373535 -2.00626 -7.51259
ltibia 25.409
lfoot -21.2723 8.94627
ltoes -57.5385
291
root -0.936004 18.6276 5.7968 -4.39401 -5.4226 -5.70713
lowerback 16.7738 -0.288619 -0.244218
upperback 5.38519 -0.379538 1.18037
thorax -3.64528 -0.202821 1.45692
lowerneck 1.03384 -7.05494 -6.83307
upperneck 42.9916 -9.94304 -0.23099
head 15.4066 -5.48379 -0.0904733
rclavicle -2.78299e-015 1.35174e-014
rhumerus 8.70236 -39.6852 -11.3042
rradius 121.824
rwrist -50.6906
rhand -2.4775 -17.489
rfingers 7.12502
rthumb 23.2153 -46.1098
lclavicle -2.78299e-015 1.35174e-014
lhumerus 19.7531 35.2806 25.8645
lradius 127.253
lwrist 77.8759
lhand -17.7725 -35.9349
lfingers 7.12502
lthumb 8.48988 -6.12553
rfemur 13.3695 -4.22668 19.2339
rtibia 1.59028e-015
rfoot -13.2708 -5.26981
rtoes -15.2354
lfemur -0.0663847 -1.8052 -7.48274
ltibia 25.5741
lfoot -20.9905 8.67607
ltoes -57.4384
292
root -0.93612 18.6315 5.75048 -4.28556 -5.29358 -5.71556
lowerback 17.3353 -0.192886 -0.141848
upperback 5.55094 -0.238774 1.13268
thorax -3.7711 -0.133215 1.32501
lowerneck 0.622837 -6.45493 -4.93303
upperneck 43.0834 -9.11102 -0.601326
head 15.326 -4.8665 -0.476621
rclavicle -3.37934e-015 -2.38542e-015
rhumerus 8.37212 -39.9067 -10.8788
rradius 122.158
rwrist -51.1435
rhand -2.4258 -17.7444
rfingers 7.12502
rthumb 23.2649 -46.3589
lclavicle -3.37934e-015 -2.38542e-015
lhumerus 20.1925 35.4735 26.0736
lradius 127.505
lwrist 78.32
lhand -18.0199 -36.1176
lfingers 7.12502
lthumb 8.25117 -6.29873
rfemur 13.1014 -4.35946 19.2521
rtibia -1.90833e-014
rfoot -13.1522 -5.28722
rtoes -15.2928
lfemur -0.531109 -1.585 -7.39127
ltibia 25.8069
lfoot -20.7287 8.39408
ltoes -57.4717
293
root -0.927435 18.6368 5.69723 -4.07792 -5.3144 -5.76115
lowerback 17.9252 -0.106337 0.0495079
upperback 5.47765 -0.0879119 1.14337
thorax -4.16418 -0.0571427 1.20155
lowerneck 0.895494 -5.7635 -3.79754
upperneck 43.1018 -8.34152 -0.288404
head 15.1889 -4.32591 -0.429247
rclavicle 1.53064e-014 -4.37326e-015
rhumerus 8.08413 -39.7543 -10.404
rradius 122.376
rwrist -51.7395
rhand -2.29508 -17.6806
rfingers 7.12502
rthumb 23.3903 -46.2792
lclavicle 1.53064e-014 -4.37326e-015
lhumerus 20.1386 35.4393 26.0556
lradius 127.751
lwrist 78.8654
lhand -18.275 -36.2196
lfingers 7.12502
lthumb 8.00491 -6.39114
rfemur 12.6602 -4.34378 19.305
rtibia 3.18055e-014
rfoot -13.0007 -5.34009
rtoes -15.1564
lfemur -1.11814 -1.3052 -7.29754
ltibia 26.0876
lfoot -20.5211 8.27192
ltoes -57.5895
294
root -0.904467 18.6466 5.63172 -3.69012 -5.66594 -5.76851
lowerback 18.5382 0.0952376 0.367575
upperback 5.33058 0.236126 1.09457
thorax -4.64909 0.10265 0.902345
lowerneck 1.03258 -5.09903 -3.32967
upperneck 43.223 -7.86263 0.911068
head 15.2544 -3.90609 0.0581455
rclavicle -1.21259e-014 1.98785e-014
rhumerus 7.63651 -39.7097 -9.90667
rradius 122.577
rwrist -52.3211
rhand -2.09692 -17.7973
rfingers 7.12502
rthumb 23.5804 -46.3716
lclavicle -1.21259e-014 1.98785e-014
lhumerus 20.1985 35.3562 26.1578
lradius 127.949
lwrist 79.3969
lhand -18.4499 -36.4233
lfingers 7.12502
lthumb 7.83611 -6.58852
rfemur 11.8814 -3.99306 19.3192
rtibia -7.95139e-016
rfoot -12.6973 -5.53356
rtoes -15.1799
lfemur -1.88895 -0.93613 -7.33307
ltibia 26.4133
lfoot -20.4158 8.42334
ltoes -57.5743
295
root -0.901724 18.6525 5.57479 -3.38732 -5.54537 -5.76575
lowerback 19.104 0.163737 0.45899
upperback 5.24255 0.350492 1.10309
thorax -5.04196 0.158506 0.834466
lowerneck 1.52122 -4.3197 -1.83073
upperneck 43.3344 -6.92707 1.02456
head 15.1007 -3.26004 -0.0301477
rclavicle -2.05742e-014 -1.15295e-014
rhumerus 7.13321 -39.677 -9.50293
rradius 122.839
rwrist -52.8012
rhand -1.91101 -18.0631
rfingers 7.12502
rthumb 23.7587 -46.6143
lclavicle -2.05742e-014 -1.15295e-014
lhumerus 20.0179 35.3006 26.0401
lradius 128.191
lwrist 79.8682
lhand -18.6685 -36.6136
lfingers 7.12502
lthumb 7.62515 -6.77106
rfemur 11.3419 -4.11954 19.3476
rtibia -3.49861e-014
rfoot -12.4779 -5.64172
rtoes -15.0961
lfemur -2.69132 -0.525231 -7.2316
ltibia 26.772
lfoot -20.0969 8.06563
ltoes -57.6224
296
root -0.898414 18.656 5.51259 -3.13654 -5.46135 -5.67269
lowerback 19.8237 0.211548 0.469342
upperback 5.14908 0.421858 1.07111
thorax -5.52083 0.193113 0.777732
lowerneck 1.71882 -3.66522 -1.3352
upperneck 43.2318 -6.41859 2.13659
head 15.0267 -2.83887 0.418442
rclavicle -7.25564e-015 3.97569e-015
rhumerus 6.58585 -39.5581 -9.19321
rradius 123.079
rwrist -53.0102
rhand -1.6435 -17.8141
rfingers 7.12502
rthumb 24.0153 -46.3318
lclavicle -7.25564e-015 3.97569e-015
lhumerus 19.5726 35.2986 25.7575
lradius 128.504
lwrist 80.3249
lhand -18.8852 -36.6037
lfingers 7.12502
lthumb 7.41595 -6.75369
rfemur 10.8216 -4.20315 19.2795
rtibia -4.77083e-015
rfoot -12.2538 -5.76172
rtoes -14.8459
lfemur -3.46341 -0.159199 -7.24983
ltibia 27.1624
lfoot -19.7969 7.72667
ltoes -57.6769
297
root -0.895134 18.6569 5.44414 -2.88074 -5.42862 -5.54746
lowerback 20.663 0.297084 0.415286
upperback 5.03546 0.529744 1.03462
thorax -6.08468 0.245623 0.741845
lowerneck 2.30545 -2.9542 -0.00179875
upperneck 43.1038 -5.56393 2.33278
head 14.769 -2.24785 0.371981
rclavicle -1.08338e-014 1.98785e-014
rhumerus 5.97766 -39.7492 -8.90877
rradius 123.601
rwrist -53.8448
rhand -0.732887 -19.4421
rfingers 7.12502
rthumb 24.8882 -47.8419
lclavicle -1.08338e-014 1.98785e-014
lhumerus 19.1163 35.2725 25.6229
lradius 128.828
lwrist 80.7368
lhand -18.9523 -36.5361
lfingers 7.12502
lthumb 7.3512 -6.6838
rfemur 10.2696 -4.2359 19.1941
rtibia -2.22639e-014
rfoot -12.0417 -5.94012
rtoes -14.7791
lfemur -4.25763 0.249566 -7.30345
ltibia 27.587
lfoot -19.5151 7.33916
ltoes -57.6698
298
root -0.891264 18.6551 5.36963 -2.58674 -5.4167 -5.48499
lowerback 21.578 0.402165 0.418057
upperback 4.9038 0.676206 1.01917
thorax -6.70748 0.315659 0.682907
lowerneck 2.89769 -2.4079 1.19804
upperneck 42.9097 -4.92705 2.54758
head 14.5065 -1.77038 0.325468
rclavicle 1.07344e-014 4.77083e-015
rhumerus 5.11412 -39.4267 -8.5931
rradius 123.618
rwrist -53.7806
rhand -0.776109 -18.0059
rfingers 7.12502
rthumb 24.8468 -46.4114
lclavicle 1.07344e-014 4.77083e-015
lhumerus 18.691 35.2113 25.604
lradius 129.105
lwrist 81.0734
lhand -19.0914 -36.3437
lfingers 7.12502
lthumb 7.21689 -6.48677
rfemur 9.65934 -4.25428 19.1975
rtibia 1.11319e-014
rfoot -11.804 -6.18765
rtoes -15.0126
lfemur -5.15465 0.805181 -7.26862
ltibia 28.1025
lfoot -19.2003 6.80659
ltoes -57.596
299
root -0.887057 18.649 5.28867 -2.24225 -5.37497 -5.50914
lowerback 22.4789 0.4838 0.521933
upperback 4.78916 0.816256 1.02347
thorax -7.30291 0.380016 0.585589
lowerneck 3.46921 -1.88605 2.07721
upperneck 42.8038 -4.38365 3.02892
head 14.3282 -1.35279 0.431941
rclavicle -5.56597e-015 2.78299e-015
rhumerus 4.17773 -39.276 -8.39069
rradius 123.863
rwrist -54.0649
rhand -0.909657 -17.8099
rfingers 7.12502
rthumb 24.7188 -46.233
lclavicle -5.56597e-015 2.78299e-015
lhumerus 18.2352 35.1535 25.6701
lradius 129.364
lwrist 81.5114
lhand -19.2832 -36.0315
lfingers 7.12502
lthumb 7.03182 -6.1683
rfemur 8.97433 -4.30759 19.3036
rtibia -1.43125e-014
rfoot -11.4956 -6.46734
rtoes -15.4632
lfemur -6.21641 1.49193 -7.12225
ltibia 28.7654
lfoot -18.857 6.13933
ltoes -57.5245
300
root -0.883034 18.6352 5.20381 -1.88168 -5.30017 -5.60948
lowerback 23.3955 0.551793 0.755155
upperback 4.6982 0.971729 1.02976
thorax -7.87753 0.447476 0.408185
lowerneck 4.33771 -1.49596 3.45762
upperneck 42.292 -3.79464 2.88609
head 13.8645 -0.919942 0.189007
rclavicle 2.78299e-015 -1.98785e-014
rhumerus 2.98043 -39.3262 -8.23952
rradius 124.343
rwrist -54.8703
rhand -0.801165 -18.8081
rfingers 7.12502
rthumb 24.8228 -47.2168
lclavicle 2.78299e-015 -1.98785e-014
lhumerus 17.7542 35.0319 25.8935
lradius 129.659
lwrist 82.1768
lhand -19.2358 -36.0736
lfingers 7.12502
lthumb 7.07754 -6.2119
rfemur 8.27075 -4.39496 19.484
rtibia -7.95139e-016
rfoot -11.1771 -6.72194
rtoes -15.63
lfemur -7.41418 2.29758 -6.88089
ltibia 29.6144
lfoot -18.5193 5.33749
ltoes -57.5148
301
root -0.876376 18.6131 5.11386 -1.51475 -5.15757 -5.7668
lowerback 24.4401 0.577744 1.19212
upperback 4.58156 1.12834 1.00072
thorax -8.54027 0.506896 0.0691768
lowerneck 4.94247 -0.98574 4.27168
upperneck 42.124 -3.28862 3.55518
head 13.6804 -0.512653 0.367794
rclavicle -6.75868e-015 3.97569e-015
rhumerus 1.43217 -39.3754 -8.12598
rradius 124.876
rwrist -55.6977
rhand -0.697523 -20.0332
rfingers 7.12502
rthumb 24.9221 -48.4282
lclavicle -6.75868e-015 3.97569e-015
lhumerus 17.3496 34.7531 26.3768
lradius 129.966
lwrist 82.8641
lhand -19.2883 -36.2531
lfingers 7.12502
lthumb 7.02686 -6.38979
rfemur 7.55659 -4.54764 19.6991
rtibia -1.98785e-014
rfoot -10.8536 -6.92045
rtoes -15.3042
lfemur -8.77114 3.19068 -6.58979
ltibia 30.6584
lfoot -18.1939 4.43485
ltoes -57.6188
302
root -0.865857 18.5841 5.01731 -1.05713 -4.88911 -5.9254
lowerback 25.4845 0.542687 1.77698
upperback 4.44081 1.25189 0.925655
thorax -9.22269 0.540967 -0.400922
lowerneck 5.72778 -0.613015 5.36445
upperneck 41.6791 -2.85881 3.95521
head 13.3253 -0.138389 0.372094
rclavicle 1.17283e-014 -6.75868e-015
rhumerus -0.411008 -39.3134 -8.06541
rradius 125.29
rwrist -56.217
rhand -0.803228 -20.5699
rfingers 7.12502
rthumb 24.8208 -48.9789
lclavicle 1.17283e-014 -6.75868e-015
lhumerus 17.0505 34.2949 27.2132
lradius 130.272
lwrist 83.4181
lhand -19.7151 -36.1752
lfingers 7.12502
lthumb 6.61488 -6.29856
rfemur 6.71931 -4.82186 19.8946
rtibia -1.03368e-014
rfoot -10.4109 -7.12149
rtoes -15.1701
lfemur -10.3953 4.03536 -6.34453
ltibia 31.8686
lfoot -17.8741 3.47796
ltoes -57.6842
303
root -0.855769 18.549 4.91675 -0.480014 -4.51359 -6.10635
lowerback 26.4507 0.501035 2.51369
upperback 4.28395 1.41618 0.803029
thorax -9.87328 0.582617 -1.03015
lowerneck 6.44633 -0.361466 6.42791
upperneck 41.1902 -2.61167 4.46067
head 12.9804 0.157608 0.403329
rclavicle -1.05356e-014 -2.14687e-014
rhumerus -2.79987 -39.1097 -7.91929
rradius 125.602
rwrist -56.4728
rhand -1.21271 -19.9879
rfingers 7.12502
rthumb 24.4283 -48.4505
lclavicle -1.05356e-014 -2.14687e-014
lhumerus 16.8612 33.6304 28.3522
lradius 130.576
lwrist 84.0527
lhand -20.1504 -36.1338
lfingers 7.12502
lthumb 6.19459 -6.24441
rfemur 2.73187 -5.20236 20.1587
rtibia 6.05995
rfoot -12.2561 -5.41058
rtoes -15.6347
lfemur -12.247 4.72413 -6.12047
ltibia 33.1946
lfoot -17.6059 2.48713
ltoes -57.5635
